<svg width="24" height="24" viewBox="0 0 24 24" fill="none" xmlns="http://www.w3.org/2000/svg">
<g clip-path="url(#clip0_0_154)">
<path d="M20.52 15.21L18.72 13.4V8.94001C18.7439 7.28384 18.1679 5.67493 17.0981 4.41035C16.0284 3.14578 14.5372 2.31095 12.9 2.06002C11.9498 1.93488 10.9839 2.01383 10.0666 2.29159C9.14935 2.56935 8.30187 3.03954 7.58072 3.67078C6.85958 4.30202 6.28135 5.07979 5.88461 5.95221C5.48787 6.82463 5.28175 7.77162 5.28 8.73001V13.4L3.48 15.21C3.25391 15.4399 3.10058 15.7313 3.0392 16.0478C2.97782 16.3643 3.0111 16.6919 3.13488 16.9897C3.25866 17.2874 3.46745 17.542 3.73515 17.7217C4.00285 17.9014 4.31758 17.9982 4.64 18H8V18.34C8.04671 19.3552 8.49395 20.3105 9.24372 20.9965C9.9935 21.6826 10.9847 22.0434 12 22C13.0153 22.0434 14.0065 21.6826 14.7563 20.9965C15.506 20.3105 15.9533 19.3552 16 18.34V18H19.36C19.6824 17.9982 19.9971 17.9014 20.2648 17.7217C20.5325 17.542 20.7413 17.2874 20.8651 16.9897C20.9889 16.6919 21.0222 16.3643 20.9608 16.0478C20.8994 15.7313 20.7461 15.4399 20.52 15.21ZM14 18.34C13.9445 18.821 13.7056 19.2621 13.3331 19.5713C12.9605 19.8805 12.483 20.0341 12 20C11.517 20.0341 11.0395 19.8805 10.6669 19.5713C10.2944 19.2621 10.0555 18.821 10 18.34V18H14V18.34Z" fill="black"/>
</g>
<defs>
<clipPath id="clip0_0_154">
<rect width="24" height="24" fill="white"/>
</clipPath>
</defs>
</svg>
