<?xml version="1.0" encoding="UTF-8"?>
<svg id="Layer_1" xmlns="http://www.w3.org/2000/svg" xmlns:xlink="http://www.w3.org/1999/xlink" version="1.1" viewBox="0 0 81 72.7">
  <!-- Generator: Adobe Illustrator 29.1.0, SVG Export Plug-In . SVG Version: 2.1.0 Build 142)  -->
  <defs>
    <style>
      .st0 {
        fill: #af1900;
      }

      .st1 {
        fill: url(#linear-gradient2);
      }

      .st2 {
        fill: url(#linear-gradient1);
      }

      .st3 {
        fill: url(#linear-gradient3);
      }

      .st4 {
        fill: url(#linear-gradient5);
      }

      .st5 {
        fill: url(#linear-gradient4);
      }

      .st6 {
        fill: #dda20e;
      }

      .st7 {
        fill: url(#linear-gradient);
      }

      .st8 {
        fill: #dda312;
      }
    </style>
    <linearGradient id="linear-gradient" x1="41.1" y1="-71.6" x2="66.8" y2="-66.4" gradientTransform="translate(0 -22.7) scale(1 -1)" gradientUnits="userSpaceOnUse">
      <stop offset="0" stop-color="#f0d24b"/>
      <stop offset="1" stop-color="#edbe37"/>
    </linearGradient>
    <linearGradient id="linear-gradient1" x1="39.5" y1="-68.1" x2="58.8" y2="-64.2" xlink:href="#linear-gradient"/>
    <linearGradient id="linear-gradient2" x1="39.5" y1="-68.1" x2="58.8" y2="-64.2" gradientTransform="translate(0 -22.7) scale(1 -1)" gradientUnits="userSpaceOnUse">
      <stop offset="0" stop-color="#ffca28"/>
      <stop offset="1" stop-color="#ffb300"/>
    </linearGradient>
    <linearGradient id="linear-gradient3" x1="41.1" y1="-71.6" x2="66.8" y2="-66.4" xlink:href="#linear-gradient2"/>
    <linearGradient id="linear-gradient4" x1="6.5" y1="-70.4" x2="69.7" y2="-57.7" xlink:href="#linear-gradient2"/>
    <linearGradient id="linear-gradient5" x1="51.8" y1="-33" x2="51.8" y2="-58.3" gradientTransform="translate(0 -22.7) scale(1 -1)" gradientUnits="userSpaceOnUse">
      <stop offset="0" stop-color="#ff4743"/>
      <stop offset="1" stop-color="#af1900"/>
    </linearGradient>
  </defs>
  <path class="st7" d="M41,48.2s11.2-3.7,17.1-5.3c5.9-1.6,7.7-1.9,8.4-.2.7,1.7.8,4.4-4,4.9-5.6.5-8.8.5-13.1.8-4.2.3-8.4,0-8.4,0h0Z"/>
  <path class="st2" d="M40,48.3s12.4-9.2,15.8-9.2c3.3,0,3,3.3,3,3.3,0,0-3,.8-10,3.3-6.9,2.5-8.8,2.5-8.8,2.5Z"/>
  <path class="st1" d="M40,48.3s12.4-9.2,15.8-9.2c3.3,0,3,3.3,3,3.3,0,0-3,.8-10,3.3-6.9,2.5-8.8,2.5-8.8,2.5Z"/>
  <g>
    <path class="st3" d="M41,48.2s11.2-3.7,17.1-5.3c5.9-1.6,7.7-1.9,8.4-.2.7,1.7.8,4.4-4,4.9-5.6.5-8.8.5-13.1.8s-8.4,0-8.4,0h0Z"/>
    <path class="st8" d="M40.4,48.9v-1.4h.5c1.2-.4,11.5-3.8,17-5.3,5.6-1.5,8.2-2.1,9.1.1.3.8.7,2.3,0,3.6-.7,1.2-2.2,1.9-4.4,2.1-3.6.3-6.2.4-8.7.5-1.4,0-2.9.1-4.5.2-3.9.2-7.6,0-8.3,0l-.6.2ZM44,47.8c1.5,0,3.4,0,5.3,0,1.6,0,3-.2,4.5-.2,2.5-.1,5.1-.2,8.6-.5,1.8-.2,3-.7,3.6-1.5.5-.9.2-2,0-2.6-.5-1.2-1.9-1.1-7.8.5-4,1.1-10.5,3.2-14.3,4.4Z"/>
  </g>
  <path class="st8" d="M38.3,48.9l1.4-1c1.3-1,12.6-9.3,16.1-9.3h0c1.2,0,2.1.4,2.7,1.1,1,1.1.9,2.8.9,2.8v.4s-.4,0-.4,0c0,0-3.1.9-9.9,3.3-7,2.5-8.9,2.6-9,2.6h-1.7ZM55.8,39.7c-2.2,0-9.2,4.6-13.4,7.6,1.4-.4,3.4-1,6.3-2,5.5-2,8.6-2.9,9.6-3.2,0-.4-.1-1.1-.6-1.6-.4-.5-1.1-.7-1.9-.7h0Z"/>
  <path class="st5" d="M13.7,64.9s-3.6.7-4.5-3.9l-2-10.1c-.4-2.1,3.9-1.7,6.6-3.1,2.8-1.4,1.9-3.2,6.1-6.6,4.1-3.4,5-1.8,6.9-7.1,1.9-5.3,1.1-8.8,2.5-9.7,1.5-.9,6.4,1.8,5.1,8.5-1.3,6.7-2.9,11.3.7,12.3,3.6,1,3.8,1.9,11.5,2,7.6.1,23.7-2.2,24.7-1.3,1.7,1.3,1.7,5.8-3.1,6.6-12.3,1.9-15.4,2.6-22.3,4.5-6.9,1.9-12.3,4.4-20,6-7.7,1.5-12.1,2.1-12.1,2.1h0Z"/>
  <path class="st6" d="M12.7,65.6c-.4,0-1,0-1.6-.3-1.1-.4-2.4-1.5-3-4.1l-2-10.1c-.4-1.9,1.7-2.3,3.6-2.7,1.1-.2,2.3-.5,3.3-1,1.2-.6,1.6-1.3,2.3-2.3.7-1.1,1.5-2.5,3.7-4.2,1.4-1.2,2.4-1.8,3.3-2.2,1.6-.9,2.3-1.3,3.5-4.7.9-2.5,1.1-4.6,1.4-6.2.2-1.9.4-3.1,1.4-3.7.8-.5,2.1-.2,3.3.6.9.6,3.7,3.1,2.6,8.4-.2.9-.4,1.7-.5,2.6-1.2,5.6-1.7,8.4.9,9.1.8.2,1.5.5,2.1.7,2,.7,3.4,1.2,9.2,1.3.2,0,.3,0,.5,0,3.6,0,8.9-.5,13.6-.9,7.6-.7,10.3-.9,11-.3,1,.8,1.5,2.4,1.1,4-.5,1.9-2.1,3.2-4.5,3.6-12.4,1.9-15.5,2.6-22.2,4.5-2.6.7-5.1,1.6-7.4,2.4-3.8,1.3-7.8,2.6-12.6,3.6-7.2,1.5-11.7,2-12.1,2.1,0,0-.3,0-.6,0ZM29.4,24.9c-.2,0-.3,0-.4,0-.5.3-.7,1.4-.9,2.9-.2,1.6-.5,3.8-1.4,6.4-1.3,3.6-2.1,4.2-3.9,5.2-.8.5-1.8,1-3.1,2.1-2,1.7-2.8,2.9-3.4,4-.7,1-1.2,2-2.7,2.7-1.1.5-2.4.8-3.6,1.1-2.1.4-2.9.7-2.8,1.4l2,10.1c.7,3.4,3,3.6,3.7,3.5h.3c.8-.1,5.1-.7,12.1-2.1,4.7-.9,8.7-2.3,12.5-3.6,2.4-.8,4.8-1.6,7.5-2.4,6.8-1.9,9.8-2.6,22.3-4.5,2.6-.4,3.3-1.9,3.6-2.8.3-1.2-.1-2.4-.7-2.8-.6-.3-5.7.2-10.2.6-4.9.4-10.5,1-14.2.9-6,0-7.5-.6-9.6-1.3-.6-.2-1.2-.4-2-.7-3.6-1-2.8-5-1.6-10.4.2-.8.4-1.7.5-2.5.9-4.7-1.4-6.8-2.2-7.3-.7-.5-1.3-.6-1.7-.6Z"/>
  <path class="st4" d="M60.6,10.5c-6.1-1.1-8.8,2.9-8.8,2.9,0,0-2.7-4-8.8-2.9-6.1,1.1-9.3,8.7-2.8,15,6.6,6.2,11.6,10.2,11.6,10.2,0,0,5-4,11.6-10.2,6.6-6.2,3.3-13.9-2.8-15Z"/>
  <path class="st0" d="M51.8,36.3l-.3-.3s-5.1-4.1-11.6-10.2c-3.2-3-4.5-6.8-3.4-10.2.9-3,3.4-5.1,6.5-5.7,5-.9,7.9,1.5,8.9,2.6,1-1.1,3.9-3.5,8.9-2.6,3.1.5,5.6,2.7,6.5,5.7,1,3.4-.2,7.2-3.4,10.2-6.5,6.2-11.5,10.2-11.6,10.2l-.3.3ZM45,10.8c-.6,0-1.2,0-1.9.2-2.7.5-4.8,2.4-5.6,4.9-.9,3,.2,6.4,3.2,9.1,5.5,5.2,10,8.9,11.2,9.9,1.2-1,5.7-4.7,11.2-9.9,2.9-2.8,4.1-6.1,3.2-9.1-.8-2.6-2.9-4.5-5.6-4.9-5.7-1-8.2,2.5-8.3,2.7l-.5.7-.5-.7c0-.1-2-2.9-6.3-2.9Z"/>
</svg>