<svg width="24" height="20" viewBox="0 0 24 20" fill="none" xmlns="http://www.w3.org/2000/svg">
<g clip-path="url(#clip0_75_4698)">
<path d="M12.7011 13.6854C12.7011 13.6854 16.3701 12.4668 18.3129 11.9336C20.2558 11.401 20.8513 11.3136 21.0755 11.8633C21.2998 12.413 21.3405 13.317 19.7548 13.4553C17.9274 13.615 16.877 13.6136 15.444 13.7022C14.0781 13.7868 12.701 13.6847 12.701 13.6847L12.7011 13.6854Z" fill="url(#paint0_linear_75_4698)"/>
<path d="M12.3945 13.7309C12.3945 13.7309 16.4776 10.7084 17.5743 10.726C18.671 10.7437 18.5682 11.8123 18.5682 11.8123C18.5682 11.8123 17.5747 12.0833 15.2955 12.9001C13.0163 13.717 12.3945 13.7309 12.3945 13.7309Z" fill="url(#paint1_linear_75_4698)"/>
<path d="M12.3945 13.7309C12.3945 13.7309 16.4776 10.7084 17.5743 10.726C18.671 10.7437 18.5682 11.8123 18.5682 11.8123C18.5682 11.8123 17.5747 12.0833 15.2955 12.9001C13.0163 13.717 12.3945 13.7309 12.3945 13.7309Z" fill="url(#paint2_linear_75_4698)"/>
<path d="M12.7011 13.6854C12.7011 13.6854 16.3701 12.4668 18.3129 11.9336C20.2558 11.401 20.8513 11.3136 21.0755 11.8633C21.2998 12.413 21.3405 13.317 19.7548 13.4553C17.9274 13.615 16.877 13.6136 15.444 13.7022C14.011 13.7908 12.701 13.6847 12.701 13.6847L12.7011 13.6854Z" fill="url(#paint3_linear_75_4698)" stroke="#DDA312" stroke-width="0.357737" stroke-miterlimit="10"/>
<path d="M12.3945 13.7309C12.3945 13.7309 16.4776 10.7084 17.5743 10.726C18.671 10.7437 18.5682 11.8123 18.5682 11.8123C18.5682 11.8123 17.5747 12.0833 15.2955 12.9001C13.0163 13.717 12.3945 13.7309 12.3945 13.7309Z" stroke="#DDA312" stroke-width="0.357737" stroke-miterlimit="10"/>
<path d="M3.90189 19.1665C3.90189 19.1665 2.71922 19.4041 2.41476 17.8882L1.74652 14.5611C1.60549 13.859 3.01775 13.9979 3.92676 13.546C4.83578 13.0941 4.56154 12.4954 5.91411 11.3779C7.26669 10.2604 7.56248 10.7775 8.17522 9.0395C8.78796 7.30147 8.52057 6.16274 9.00106 5.87358C9.48155 5.58441 11.1161 6.44855 10.6744 8.65285C10.2326 10.8572 9.72336 12.3438 10.9065 12.6827C12.0898 13.0223 12.1578 13.2954 14.665 13.3304C17.1722 13.3654 22.4274 12.6215 22.7808 12.895C23.324 13.3142 23.3244 14.8058 21.7508 15.0481C17.719 15.6703 16.7046 15.8916 14.4453 16.5242C12.1861 17.1567 10.4098 17.974 7.88659 18.4808C5.36342 18.9875 3.90175 19.1658 3.90175 19.1658L3.90189 19.1665Z" fill="url(#paint4_linear_75_4698)"/>
<path d="M3.58646 19.2276C3.58646 19.2276 2.40379 19.4652 2.09933 17.9493L1.43109 14.6222C1.29006 13.9201 2.70232 14.059 3.61133 13.6071C4.52035 13.1552 4.24611 12.5564 5.59868 11.439C6.95126 10.3215 7.24705 10.8386 7.85979 9.1006C8.47253 7.36256 8.20514 6.22384 8.68563 5.93467C9.16612 5.64551 10.8007 6.50964 10.3589 8.71395C9.91719 10.9183 9.40793 12.4049 10.5911 12.7438C11.7744 13.0834 11.8424 13.3565 14.3495 13.3915C16.8567 13.4265 22.112 12.6826 22.4654 12.9561C23.0086 13.3753 23.009 14.8669 21.4354 15.1092C17.4036 15.7314 16.3892 15.9527 14.1299 16.5853C11.8706 17.2178 10.0943 18.0351 7.57116 18.5419C5.04799 19.0486 3.58632 19.2269 3.58632 19.2269L3.58646 19.2276Z" stroke="#DDA20E" stroke-width="0.357737" stroke-miterlimit="10"/>
<path d="M19.1366 1.32193C17.1283 0.972783 16.2483 2.28425 16.2483 2.28425C16.2483 2.28425 15.3682 0.972783 13.3599 1.32193C11.373 1.66679 10.2984 4.1917 12.457 6.2308C14.6156 8.2699 16.2483 9.57779 16.2483 9.57779C16.2483 9.57779 17.8803 8.2699 20.0396 6.2308C22.1982 4.1917 21.1235 1.66751 19.1366 1.32193Z" fill="url(#paint5_linear_75_4698)"/>
<path d="M19.1366 1.32193C17.1283 0.972783 16.2483 2.28425 16.2483 2.28425C16.2483 2.28425 15.3682 0.972783 13.3599 1.32193C11.373 1.66679 10.2984 4.1917 12.457 6.2308C14.6156 8.2699 16.2483 9.57779 16.2483 9.57779C16.2483 9.57779 17.8803 8.2699 20.0396 6.2308C22.1982 4.1917 21.1235 1.66751 19.1366 1.32193Z" stroke="#AF1900" stroke-width="0.357737" stroke-miterlimit="10"/>
</g>
<defs>
<linearGradient id="paint0_linear_75_4698" x1="12.7508" y1="13.933" x2="21.1811" y2="12.2398" gradientUnits="userSpaceOnUse">
<stop stop-color="#F0D24B"/>
<stop offset="1" stop-color="#EDBE37"/>
</linearGradient>
<linearGradient id="paint1_linear_75_4698" x1="12.2045" y1="12.7854" x2="18.5507" y2="11.5107" gradientUnits="userSpaceOnUse">
<stop stop-color="#F0D24B"/>
<stop offset="1" stop-color="#EDBE37"/>
</linearGradient>
<linearGradient id="paint2_linear_75_4698" x1="12.2047" y1="12.7859" x2="18.5508" y2="11.5113" gradientUnits="userSpaceOnUse">
<stop stop-color="#FFCA28"/>
<stop offset="1" stop-color="#FFB300"/>
</linearGradient>
<linearGradient id="paint3_linear_75_4698" x1="12.7508" y1="13.9327" x2="21.1814" y2="12.2394" gradientUnits="userSpaceOnUse">
<stop stop-color="#FFCA28"/>
<stop offset="1" stop-color="#FFB300"/>
</linearGradient>
<linearGradient id="paint4_linear_75_4698" x1="1.54406" y1="13.5531" x2="22.2724" y2="9.38986" gradientUnits="userSpaceOnUse">
<stop stop-color="#FFCA28"/>
<stop offset="1" stop-color="#FFB300"/>
</linearGradient>
<linearGradient id="paint5_linear_75_4698" x1="16.2483" y1="1.26327" x2="16.2483" y2="9.57779" gradientUnits="userSpaceOnUse">
<stop stop-color="#FF4743"/>
<stop offset="1" stop-color="#AF1900"/>
</linearGradient>
<clipPath id="clip0_75_4698">
<rect width="23.4378" height="19.1549" fill="white" transform="translate(0.03125 0.422546)"/>
</clipPath>
</defs>
</svg>
