<svg width="141" height="28" viewBox="0 0 141 28" fill="none" xmlns="http://www.w3.org/2000/svg">
<g clip-path="url(#clip0_1_265)">
<path d="M63.7108 19.9791C63.8534 20.0504 63.889 20.1929 63.889 20.3354C63.889 20.4423 63.8534 20.5492 63.7821 20.6205C63.7108 20.6917 63.6039 20.7274 63.497 20.7274H56.7269C56.62 20.7274 56.5131 20.6917 56.4418 20.6205C56.3705 20.5492 56.3349 20.4423 56.3349 20.3354C56.3349 20.2285 56.4062 20.086 56.5131 19.9791C56.8338 19.7653 57.1188 19.4802 57.4039 19.0527C57.689 18.6251 57.8315 18.0906 57.8315 17.4492V13.8859C57.8315 12.3538 57.689 11.1779 57.4039 10.2871C57.1188 9.43189 56.7269 9.0043 56.228 9.0043C55.7292 9.0043 55.3016 9.43189 54.9809 10.3227C54.6602 11.2135 54.482 12.4606 54.482 14.0997V17.4492C54.482 18.0906 54.6246 18.6251 54.9096 19.0527C55.1947 19.4802 55.5154 19.8009 55.8361 19.9791C55.943 20.0504 56.0142 20.1929 56.0142 20.3354C56.0142 20.478 55.9786 20.5492 55.9073 20.6205C55.8361 20.6917 55.7292 20.7274 55.6223 20.7274H48.8165C48.7096 20.7274 48.6383 20.6917 48.5314 20.6205C48.4601 20.5492 48.4245 20.4423 48.4245 20.3354C48.4245 20.2285 48.4958 20.086 48.6383 19.9791C48.959 19.7653 49.2441 19.4802 49.5291 19.0527C49.8142 18.6251 49.9567 18.0906 49.9567 17.4492V13.8859C49.9567 12.8526 49.8854 11.9974 49.7429 11.2491C49.6004 10.5009 49.4222 9.96638 49.1728 9.57442C48.9234 9.21809 48.6383 9.0043 48.3176 9.0043C47.8188 9.0043 47.4268 9.43189 47.1061 10.3227C46.7854 11.2135 46.6073 12.4606 46.6073 14.0997V17.4492C46.6073 18.0906 46.7498 18.6251 47.0348 19.0527C47.3199 19.4802 47.6406 19.8009 47.9257 19.9791C48.0682 20.0504 48.1395 20.1929 48.1395 20.3354C48.1395 20.478 48.1038 20.5136 48.0326 20.6205C47.9613 20.6917 47.8544 20.7274 47.7475 20.7274H40.9417C40.8348 20.7274 40.7279 20.6917 40.6566 20.6205C40.5854 20.5492 40.5497 20.4423 40.5497 20.3354C40.5497 20.1929 40.621 20.086 40.7635 19.9791C41.0842 19.7653 41.3693 19.4802 41.6543 19.0527C41.9394 18.6251 42.0819 18.0906 42.0819 17.4492V11.2135C42.0819 10.9285 41.9038 10.6434 41.5831 10.394C41.2624 10.1445 41.0842 9.93074 41.0842 9.71695C41.0842 9.50315 41.1198 9.46752 41.2267 9.39626C41.3336 9.32499 41.4405 9.28936 41.5118 9.28936C42.1532 9.28936 42.7589 9.18246 43.3647 8.93303C43.9348 8.68361 44.4337 8.43418 44.79 8.14912C45.1463 7.86406 45.5026 7.61463 45.8946 7.36521C46.2866 7.11578 46.6073 7.00888 46.8567 7.00888C47.1061 7.00888 47.3555 7.15141 47.3555 7.40084C47.3555 7.65027 47.3555 7.579 47.2843 7.65026C47.2486 7.72153 47.1774 7.7928 47.0705 7.93533C46.9636 8.04222 46.8923 8.14912 46.8567 8.18475C47.7119 7.43647 48.9234 7.04451 50.5268 7.04451C52.1303 7.04451 52.2016 7.22268 52.736 7.579C53.2705 7.93533 53.6625 8.43418 53.9119 9.14683C54.7671 7.75716 56.228 7.08015 58.366 7.08015C60.5039 7.08015 59.1143 7.08015 59.4349 7.15141C59.7556 7.22268 60.0407 7.29394 60.2901 7.40084C60.5395 7.50774 60.7533 7.6859 60.9315 7.86406C61.1097 8.04222 61.2878 8.25602 61.4304 8.46981C61.5729 8.68361 61.6798 8.93303 61.7867 9.21809C61.8936 9.50315 61.9649 9.82385 62.0361 10.1089C62.1074 10.394 62.143 10.7503 62.143 11.1422C62.143 11.5342 62.1786 11.9262 62.2143 12.2825V17.4848C62.2143 17.9124 62.2855 18.34 62.4637 18.732C62.6419 19.1239 62.82 19.409 62.9982 19.5871C63.1764 19.7653 63.3545 19.9078 63.5327 20.0147L63.7108 19.9791Z" fill="black"/>
<path d="M74.9707 15.0975C75.2558 14.7768 75.5765 14.7412 75.9328 15.0262C76.2891 15.3113 76.396 15.6676 76.2535 16.1308C75.7903 17.7343 74.9707 18.9814 73.7949 19.8722C72.6546 20.7631 71.3718 21.2263 70.0178 21.2263C68.6638 21.2263 66.704 20.5493 65.4569 19.1596C64.2097 17.7699 63.5683 16.0952 63.5683 14.1354C63.5683 12.1756 64.2097 10.5009 65.4569 9.11123C66.704 7.72156 68.2362 7.04455 70.0178 7.04455C71.7994 7.04455 72.0845 7.22271 72.8684 7.5434C73.6523 7.86409 74.2937 8.39858 74.7569 9.11123C75.2202 9.82388 75.4339 10.6434 75.4339 11.6411C75.4339 12.6388 75.3627 12.2825 75.2558 12.6745C75.1489 13.0308 74.9351 13.4584 74.65 13.9216C74.3293 14.3848 73.973 14.8124 73.5098 15.1688C73.0466 15.5251 72.4408 15.8101 71.6569 16.0239C70.873 16.2377 69.9822 16.309 68.9488 16.2734C69.4833 16.8791 70.1603 17.1642 70.9443 17.1642C71.7282 17.1642 71.7994 17.0929 72.2627 16.9504C72.7259 16.8078 73.1891 16.5584 73.6167 16.2734C74.0799 15.9527 74.5075 15.5963 74.8995 15.1688L74.9707 15.0975ZM68.1649 13.5297C68.1649 14.171 68.2362 14.7412 68.4144 15.2044C69.0914 14.8481 69.6615 14.3848 70.1247 13.8504C70.5879 13.3159 70.9086 12.7457 71.1224 12.1044C71.3362 11.4986 71.4431 10.8572 71.4431 10.1446C71.4431 9.43192 71.3362 9.21813 71.0868 8.79054C70.8374 8.36295 70.5167 8.11352 70.0891 8.11352C69.6615 8.11352 69.0557 8.61238 68.735 9.61009C68.4144 10.6078 68.2362 11.9262 68.2362 13.5297H68.1649Z" fill="black"/>
<path d="M88.1191 15.0975C88.4042 14.7768 88.7248 14.7412 89.0812 15.0262C89.4375 15.3113 89.5444 15.6676 89.4019 16.1308C88.9386 17.7343 88.1191 18.9814 86.9432 19.8722C85.803 20.7631 84.5202 21.2263 83.1662 21.2263C81.8121 21.2263 79.8524 20.5493 78.6052 19.1596C77.3581 17.7699 76.7167 16.0952 76.7167 14.1354C76.7167 12.1756 77.3581 10.5009 78.6052 9.11123C79.8524 7.72156 81.3846 7.04455 83.1662 7.04455C84.9478 7.04455 85.2329 7.22271 86.0168 7.5434C86.8007 7.86409 87.4421 8.39858 87.9053 9.11123C88.3685 9.82388 88.5823 10.6434 88.5823 11.6411C88.5823 12.6388 88.5111 12.2825 88.4042 12.6745C88.2973 13.0308 88.0835 13.4584 87.7984 13.9216C87.4777 14.3848 87.1214 14.8124 86.6582 15.1688C86.1949 15.5251 85.5892 15.8101 84.8053 16.0239C84.0214 16.2377 83.1305 16.309 82.0972 16.2734C82.6317 16.8791 83.3087 17.1642 84.0926 17.1642C84.8765 17.1642 84.9478 17.0929 85.411 16.9504C85.8742 16.8078 86.3375 16.5584 86.7651 16.2734C87.2283 15.9527 87.6559 15.5963 88.0478 15.1688L88.1191 15.0975ZM81.3489 13.5297C81.3489 14.171 81.4202 14.7412 81.5983 15.2044C82.2754 14.8481 82.8455 14.3848 83.3087 13.8504C83.7719 13.3159 84.0926 12.7457 84.3064 12.1044C84.5202 11.4986 84.6271 10.8572 84.6271 10.1446C84.6271 9.43192 84.5202 9.21813 84.2708 8.79054C84.0214 8.36295 83.7007 8.11352 83.2731 8.11352C82.8455 8.11352 82.2397 8.61238 81.919 9.61009C81.5983 10.6078 81.4202 11.9262 81.4202 13.5297H81.3489Z" fill="black"/>
<path d="M95.1031 18.6607C95.1031 19.0883 95.1743 19.3734 95.3169 19.5515C95.4594 19.7297 95.6376 19.801 95.8157 19.801C95.9939 19.801 96.1364 19.801 96.3146 19.8366C96.4927 19.8722 96.5284 20.0148 96.5284 20.1929C96.5284 20.3711 96.4215 20.5136 96.2433 20.6561C96.0652 20.7987 95.7445 20.9412 95.2812 21.0481C94.818 21.155 94.2835 21.2263 93.6421 21.2263C93.0008 21.2263 92.4663 21.1194 92.0387 20.9412C91.6111 20.763 91.2904 20.478 91.0766 20.1216C90.8628 19.7653 90.7559 19.409 90.6846 19.0527C90.6134 18.6963 90.5777 18.3044 90.5777 17.8768V8.50546H89.8295C89.7582 8.50546 89.6869 8.50546 89.6157 8.39856C89.5444 8.3273 89.5088 8.25603 89.5088 8.14914V7.86408C89.5088 7.65028 89.58 7.57902 89.7582 7.57902C90.3283 7.57902 90.8984 7.43649 91.4686 7.11579C92.0387 6.7951 92.5375 6.43878 92.9651 6.01119C93.3571 5.5836 93.7134 5.15601 93.9628 4.76405C94.2123 4.33646 94.3548 4.01577 94.3548 3.73071C94.3548 3.44565 94.4261 3.41002 94.5686 3.33875C94.7111 3.26749 94.8536 3.26749 94.9605 3.33875C95.1031 3.41002 95.1743 3.51691 95.1743 3.69508V7.54338H96.1008C96.1721 7.54338 96.2433 7.54338 96.3146 7.65028C96.3858 7.72155 96.4215 7.79281 96.4215 7.89971V8.14914C96.4215 8.25603 96.4215 8.3273 96.3146 8.39856C96.2433 8.46983 96.1721 8.50546 96.1008 8.50546H95.1031V18.732V18.6607Z" fill="black"/>
<path d="M105.971 7.04455C107.289 7.04455 108.394 7.72156 109.32 9.11123C110.247 10.5009 110.71 12.14 110.71 14.0998C110.71 16.0596 110.247 17.7343 109.32 19.124C108.394 20.5136 107.289 21.1906 105.971 21.1906C104.653 21.1906 103.548 20.6562 102.693 19.5872C102.693 19.9079 102.515 20.1573 102.265 20.4067C102.016 20.6562 101.731 20.7274 101.41 20.7274H97.0628C96.9559 20.7274 96.8491 20.6918 96.7778 20.6205C96.7065 20.5493 96.6709 20.4424 96.6709 20.3355C96.6709 20.1929 96.7422 20.086 96.849 19.9791C97.1697 19.7653 97.4904 19.4803 97.7755 19.0527C98.0606 18.6251 98.2031 18.0906 98.2031 17.4492V6.40316C98.2031 6.1181 98.0249 5.83304 97.7042 5.58362C97.3835 5.33419 97.2054 5.12039 97.2054 4.9066C97.2054 4.6928 97.241 4.65717 97.3479 4.58591C97.4548 4.51464 97.5617 4.47901 97.633 4.47901C98.2744 4.47901 98.8801 4.37211 99.4859 4.12268C100.056 3.90889 100.555 3.62383 100.911 3.3744C101.267 3.08934 101.624 2.83992 102.016 2.59049C102.408 2.34106 102.728 2.23416 103.013 2.23416C103.299 2.23416 103.512 2.37669 103.512 2.62612C103.512 2.87555 103.441 2.91118 103.299 3.05371C103.156 3.19624 103.049 3.3744 102.907 3.62383C102.764 3.87326 102.693 4.12268 102.693 4.44338V8.68364C103.512 7.61467 104.581 7.11581 105.935 7.11581L105.971 7.04455ZM103.227 17.7343C103.548 18.732 103.976 19.2309 104.439 19.2309C104.902 19.2309 105.294 18.732 105.65 17.7343C105.971 16.7366 106.149 15.5251 106.149 14.0998C106.149 12.6745 106.078 12.3182 105.9 11.5342C105.757 10.7503 105.543 10.1446 105.258 9.68135C105.009 9.21813 104.724 9.00433 104.403 9.00433C104.082 9.00433 103.797 9.21813 103.548 9.68135C103.299 10.1446 103.085 10.7503 102.907 11.5342C102.764 12.3182 102.657 13.1733 102.657 14.0998C102.657 15.5251 102.835 16.7366 103.156 17.7343H103.227Z" fill="black"/>
<path d="M125.498 20.2286C125.604 20.2998 125.676 20.4424 125.676 20.5849C125.676 20.7274 125.64 20.7987 125.569 20.8699C125.498 20.9412 125.391 20.9768 125.284 20.9768H120.972C120.58 20.9768 120.26 20.8343 120.01 20.5136C119.761 20.1929 119.654 19.7653 119.654 19.1952V19.0527C118.3 20.3355 116.768 20.9768 115.093 20.9768C113.418 20.9768 113.133 20.6205 112.385 19.9435C111.672 19.2665 111.28 18.3044 111.28 17.1285C111.28 15.9527 111.494 15.6676 111.886 15.0619C112.314 14.4561 112.812 13.9572 113.418 13.6009C114.024 13.2446 114.701 12.8883 115.449 12.5676C116.162 12.2469 116.839 11.9618 117.48 11.7124C118.086 11.4986 118.62 11.2135 119.012 10.8572C119.44 10.5365 119.618 10.1802 119.618 9.75262C119.618 9.32503 119.547 9.36066 119.44 9.14686C119.333 8.93307 119.119 8.79054 118.87 8.64801C118.62 8.50548 118.335 8.43421 118.015 8.43421C117.694 8.43421 117.302 8.54111 116.981 8.75491C116.661 8.9687 116.376 9.21813 116.126 9.50319C115.877 9.78825 115.627 10.1089 115.414 10.394C115.164 10.6791 114.915 10.9285 114.63 11.1423C114.345 11.3561 114.024 11.463 113.739 11.463C113.454 11.463 113.133 11.3204 112.848 11.071C112.527 10.8216 112.385 10.4653 112.385 10.0733C112.385 9.28939 112.884 8.64801 113.846 8.07789C114.808 7.50777 116.197 7.22271 117.979 7.22271C119.761 7.22271 118.3 7.22271 118.656 7.25834C118.977 7.25834 119.476 7.40087 120.188 7.57904C120.901 7.7572 121.507 7.97099 122.077 8.29168C122.647 8.57674 123.146 9.03997 123.573 9.64572C124.001 10.2515 124.215 10.9641 124.215 11.7837V17.6274C124.215 18.2688 124.357 18.8033 124.642 19.2309C124.927 19.6584 125.248 19.9791 125.569 20.1573L125.498 20.2286ZM119.618 17.2711V12.0687C119.44 12.2113 119.191 12.4251 118.87 12.6388C118.549 12.8883 118.3 13.0664 118.086 13.2446C117.872 13.4228 117.623 13.6009 117.373 13.8504C117.124 14.0998 116.91 14.3136 116.732 14.5274C116.554 14.7412 116.447 14.9906 116.34 15.2756C116.233 15.5607 116.162 15.8458 116.162 16.1665C116.162 16.9147 116.34 17.4492 116.696 17.7699C117.053 18.0906 117.445 18.2688 117.872 18.2688C118.514 18.2688 119.084 17.9481 119.654 17.2711H119.618Z" fill="black"/>
<path d="M133.087 19.9791C133.23 20.0504 133.301 20.1929 133.301 20.3355C133.301 20.478 133.265 20.5136 133.194 20.6205C133.123 20.7274 133.016 20.7274 132.909 20.7274H126.103C125.996 20.7274 125.89 20.6918 125.818 20.6205C125.747 20.5493 125.711 20.4424 125.711 20.3355C125.711 20.1929 125.783 20.086 125.925 19.9791C126.246 19.7653 126.531 19.4803 126.816 19.0527C127.101 18.6251 127.244 18.0906 127.244 17.4492V6.40316C127.244 6.1181 127.065 5.83304 126.745 5.58362C126.424 5.33419 126.246 5.12039 126.246 4.9066C126.246 4.6928 126.281 4.65717 126.388 4.58591C126.495 4.51464 126.602 4.47901 126.673 4.47901C127.315 4.47901 127.921 4.37211 128.526 4.12268C129.096 3.90889 129.595 3.62383 129.952 3.3744C130.308 3.08934 130.664 2.83992 131.056 2.59049C131.448 2.34106 131.769 2.23416 132.018 2.23416C132.268 2.23416 132.517 2.37669 132.517 2.62612C132.517 2.87555 132.446 2.91118 132.303 3.05371C132.161 3.19624 132.054 3.3744 131.911 3.62383C131.769 3.87326 131.698 4.12269 131.698 4.44338V17.4849C131.698 18.1262 131.84 18.6607 132.125 19.0883C132.41 19.5159 132.731 19.8366 133.016 20.0148L133.087 19.9791Z" fill="black"/>
<path d="M140.713 19.9791C140.855 20.0504 140.926 20.1929 140.926 20.3355C140.926 20.478 140.891 20.5136 140.82 20.6205C140.748 20.7274 140.641 20.7274 140.534 20.7274H133.729C133.622 20.7274 133.515 20.6918 133.444 20.6205C133.372 20.5493 133.337 20.4424 133.337 20.3355C133.337 20.1929 133.408 20.086 133.55 19.9791C133.871 19.7653 134.156 19.4803 134.441 19.0527C134.726 18.6251 134.869 18.0906 134.869 17.4492V6.40316C134.869 6.1181 134.691 5.83304 134.37 5.58362C134.049 5.33419 133.871 5.12039 133.871 4.9066C133.871 4.6928 133.907 4.65717 134.014 4.58591C134.121 4.51464 134.228 4.47901 134.299 4.47901C134.94 4.47901 135.546 4.37211 136.152 4.12268C136.722 3.90889 137.221 3.62383 137.577 3.3744C137.933 3.08934 138.29 2.83992 138.682 2.59049C139.074 2.34106 139.394 2.23416 139.644 2.23416C139.893 2.23416 140.143 2.37669 140.143 2.62612C140.143 2.87555 140.071 2.91118 139.929 3.05371C139.786 3.19624 139.679 3.3744 139.537 3.62383C139.394 3.87326 139.323 4.12269 139.323 4.44338V17.4849C139.323 18.1262 139.465 18.6607 139.751 19.0883C140.036 19.5159 140.356 19.8366 140.641 20.0148L140.713 19.9791Z" fill="black"/>
<path d="M27.5439 19.1596L30.4657 22.3665L26.2255 21.6895L27.5439 19.1596Z" fill="#88967E"/>
<path d="M30.4301 22.9367C31.0359 22.224 31.8198 21.2263 32.6393 19.5159C33.4589 17.8056 33.6371 14.3849 33.7083 10.9641C33.7796 7.54343 31.6773 5.47674 30.1094 3.80202C28.5416 2.16292 23.6956 0.274403 21.3439 0.060608C18.9921 -0.153187 13.6116 0.203138 10.2265 1.05832C6.84144 1.87786 4.52532 3.51696 2.52991 6.83078C0.534487 10.1446 1.10461 13.4228 1.10461 15.0262C1.10461 16.6297 3.13566 20.6918 3.13566 20.6918L3.27819 21.0125C3.24256 21.4401 3.06439 21.9746 2.70807 22.616C1.38967 24.7183 0 25.5022 0 25.5022C0 25.5022 1.81726 26.1792 3.88394 25.4666C4.34716 25.2884 4.77475 25.0746 5.13108 24.8608C5.66556 25.4309 6.66327 26.2505 8.4449 27.1769C11.6518 28.8516 17.7806 27.462 20.7737 27.3907C22.6979 27.3551 25.2634 26.6068 27.4014 25.3953C27.9359 25.5735 28.6485 25.7516 29.4324 25.7516C31.606 25.7516 33.1026 24.9321 33.1026 24.9321C33.1026 24.9321 31.7485 24.6826 30.0382 23.4355C30.1807 23.293 30.3232 23.1148 30.4658 22.9367H30.4301Z" fill="#12284F"/>
<path d="M30.6795 22.2239C30.5014 21.7607 30.4301 21.4044 30.3588 21.0837C30.5726 20.763 30.7864 20.4067 31.0002 20.0504C31.891 18.34 32.1405 16.0595 32.1405 14.6342C32.1405 13.2089 33.2451 10.2514 31.4635 7.2583C29.6818 4.26517 27.0094 2.44791 24.0163 1.5571C20.0611 0.381228 16.1059 1.02261 14.0035 1.20078C11.9012 1.37894 7.55406 3.05366 6.12876 4.55023C4.70346 6.04679 2.81494 7.89968 2.88621 10.9641C2.95747 14.0285 2.77931 16.9147 3.52759 18.4469C4.27587 19.9791 4.88162 21.7251 5.20232 22.509C6.37819 25.1458 11.0104 26.8918 12.4713 26.8918C15.1438 26.8918 22.2346 26.9987 25.1209 25.4665C26.76 24.6113 27.6864 24.0056 28.1496 23.6136C28.506 23.9343 29.0761 24.3263 29.7531 24.54C31.4278 25.1102 33.0669 24.932 33.0669 24.932C33.0669 24.932 31.1784 23.5067 30.7152 22.2239H30.6795Z" fill="#F44A66"/>
<path d="M30.0025 8.86177C29.3611 7.54337 28.3991 6.4744 28.0784 5.76175C27.045 3.44564 22.9829 1.94907 21.7358 1.94907C19.3841 1.94907 13.2196 1.84217 10.6897 3.19621C8.15982 4.55024 8.62305 4.12265 7.37591 5.01346C6.16441 5.90428 5.20233 7.50774 5.20233 7.50774C5.20233 7.50774 3.99082 10.0376 3.99082 11.3204C3.99082 12.6032 3.56323 16.5228 5.13106 19.1239C5.23796 19.2665 5.30923 19.409 5.41612 19.5871C5.41612 19.9078 5.41612 20.7987 5.30923 21.6895C5.13106 22.8297 3.56323 23.7561 3.56323 23.7561C3.56323 23.7561 5.09543 24.1125 6.55636 23.7205C7.16211 23.5424 7.66097 23.2217 7.94603 22.9722C8.97937 24.0412 10.1196 24.932 11.4024 25.2883C14.8587 26.3217 18.3151 25.7516 20.168 25.609C22.0209 25.4665 26.2611 23.1504 27.5083 21.8676C28.7554 20.5849 30.8577 18.055 30.7864 15.3825C30.7152 12.7101 30.7152 10.2158 30.0738 8.8974L30.0025 8.86177Z" fill="#FFD194"/>
<path d="M27.5439 21.1194C27.3657 20.9412 27.2588 20.7987 27.1519 20.6561L28.0427 19.4446C28.0427 19.4446 29.1117 17.1642 29.1117 16.0239C29.1117 14.8837 29.5037 11.3561 28.0784 9.00432C26.6531 6.65257 24.8002 4.1583 22.4484 3.44565C19.3128 2.51921 16.2128 3.01806 14.538 3.16059C12.8633 3.30312 9.015 5.3698 7.91039 6.54568C6.80579 7.72155 4.88163 9.96639 4.9529 12.3894C5.02416 14.8124 5.02416 17.0573 5.59428 18.2331C6.1644 19.4446 7.05521 20.4067 7.34027 21.0125C8.26672 23.1148 11.9369 24.4688 13.0771 24.4688C15.1794 24.4688 20.7737 24.5401 23.0542 23.3642C23.7668 23.0079 24.337 22.6872 24.8358 22.4378C25.299 22.6516 26.0117 22.901 26.76 23.0079C28.1853 23.2217 29.5393 22.7228 29.5393 22.7228C29.5393 22.7228 28.2209 21.9745 27.4726 21.155L27.5439 21.1194Z" fill="#88967E"/>
<path d="M26.5462 19.1952C26.5462 18.8033 26.5462 18.4469 26.5818 18.1975C26.9025 17.5918 27.1163 17.0929 27.2588 16.8078C27.7577 15.7745 27.6508 13.7791 27.722 11.6411C27.7933 9.50318 26.4393 8.22041 25.4772 7.18707C24.5151 6.15373 21.4864 4.97786 20.0254 4.87096C18.5645 4.76406 14.8231 5.01349 13.1484 5.54798C12.3288 5.83304 9.15752 7.00891 7.91039 9.07559C7.16211 10.3584 7.16211 13.5297 7.16211 14.5274C7.16211 15.5251 8.08855 18.0193 8.08855 18.0193L9.58511 19.8366C9.58511 19.8366 10.3334 20.6205 12.3288 21.6895C14.3242 22.7228 18.6714 22.8654 20.5243 22.5447C22.4484 22.1883 23.8381 21.3688 24.8358 20.4424C24.9427 20.5492 25.0852 20.6561 25.1921 20.763C26.3324 21.6182 27.6508 21.2975 27.6508 21.2975C27.6508 21.2975 26.5462 20.3355 26.5105 19.2308L26.5462 19.1952Z" fill="#3EC6C6"/>
<path d="M26.1186 14.4205C26.1186 13.5653 26.1186 10.8572 25.4772 9.75261C24.4082 7.97099 20.4174 6.15373 15.0725 6.15373C14.7875 6.15373 11.2242 7.25834 10.4047 8.14915C8.05292 10.6434 8.40924 15.5251 8.87247 16.4159C8.97936 16.6297 9.19316 16.986 9.54948 17.4492C9.54948 17.6274 9.47822 17.8056 9.44259 18.0193C9.19316 19.124 7.76786 19.9079 7.76786 19.9079C7.76786 19.9079 9.12189 20.4424 10.3334 19.7653C10.6185 19.5872 10.9035 19.3734 11.1173 19.1952C12.1507 20.1929 13.4334 21.1194 14.7162 21.3332C16.284 21.5826 20.0254 21.5113 21.7714 20.5849C23.4818 19.6941 23.4105 19.6584 23.4105 19.6584L25.4059 17.4492C25.4059 17.4492 26.2255 15.3113 26.2255 14.4561L26.1186 14.4205Z" fill="#12284F"/>
<path d="M23.4818 17.5918C23.4105 17.4136 23.3393 17.2711 23.3036 17.1286C23.8381 16.5228 24.1944 15.9883 24.337 15.7033C24.6933 14.9906 24.9784 11.2136 23.1255 9.25378C22.4841 8.57676 19.6691 7.68595 19.4553 7.68595C15.2863 7.68595 12.1507 9.11125 11.3311 10.5009C10.8323 11.3561 10.8323 13.494 10.8323 14.1711C10.8323 14.8481 11.4736 16.5228 11.4736 16.5228L13.184 18.3044C13.184 18.3044 16.2128 20.2642 19.8116 19.5516C20.4174 19.4447 21.0231 19.124 21.5576 18.732C21.8783 18.9814 22.3772 19.3378 22.9829 19.5516C24.3013 19.9792 25.5841 19.1596 25.5841 19.1596C25.5841 19.1596 23.9806 18.6608 23.5174 17.5918H23.4818Z" fill="#FFB000"/>
<path d="M22.5553 11.1067C21.8783 9.96643 19.2772 8.75492 15.7852 8.75492C15.607 8.75492 13.2909 9.46757 12.7564 10.0377C11.2242 11.6412 11.4736 14.8124 11.7587 15.4182C11.7587 15.7033 11.7587 16.0952 11.6162 16.5228C11.3667 17.4136 10.1909 18.055 10.1909 18.055C10.1909 18.055 11.2955 18.5182 12.2932 18.0194C12.7208 17.8056 13.0415 17.4849 13.2553 17.2355C13.9323 17.8412 14.7162 18.4113 15.5357 18.5895C18.5289 19.1952 20.5599 17.8056 20.5599 17.8056L22.591 15.7033C22.591 15.7033 22.9829 14.6699 22.9829 14.1354C22.9829 13.6009 22.9829 11.8193 22.5553 11.1067Z" fill="#1D5663"/>
<path d="M20.4887 11.4986C20.168 11.1423 18.7427 10.7147 18.6358 10.7147C16.4978 10.7147 14.93 11.463 14.5024 12.14C14.253 12.5676 14.253 13.6722 14.253 13.9929H14.2173C14.2173 13.9573 14.253 14.3849 14.0748 15.1331C13.861 15.8814 12.8633 16.4159 12.8633 16.4159C12.8633 16.4159 13.7897 16.8079 14.6449 16.4159C14.93 16.2734 15.1794 16.0596 15.3576 15.8458L15.7495 16.2734C15.7495 16.2734 16.9967 17.1286 18.8496 16.7366C19.9185 16.5228 20.9875 15.1331 21.1657 14.7768C21.3438 14.4205 21.4864 12.4607 20.5599 11.4986H20.4887Z" fill="#F2F1ED"/>
</g>
<defs>
<clipPath id="clip0_1_265">
<rect width="140.926" height="27.9999" fill="white"/>
</clipPath>
</defs>
</svg>
