<?xml version="1.0" encoding="UTF-8"?>
<svg id="Layer_1" xmlns="http://www.w3.org/2000/svg" version="1.1" viewBox="0 0 540.6 192.3">
  <!-- Generator: Adobe Illustrator 29.1.0, SVG Export Plug-In . SVG Version: 2.1.0 Build 142)  -->
  <defs>
    <style>
      .st0 {
        fill: #88967e;
      }

      .st1 {
        fill: #ffb000;
      }

      .st2 {
        fill: #3ec6c6;
      }

      .st3 {
        fill: #f44a66;
      }

      .st4 {
        fill: #ffd194;
      }

      .st5 {
        fill: #12284f;
      }

      .st6 {
        fill: #f2f1ed;
      }

      .st7 {
        fill: #1d5663;
      }
    </style>
  </defs>
  <g>
    <g>
      <path d="M251.5,111.8c.4.2.5.6.5,1s-.1.6-.3.8c-.2.2-.5.3-.8.3h-19c-.3,0-.6,0-.8-.3s-.3-.5-.3-.8.2-.7.5-1c.9-.6,1.7-1.4,2.5-2.6s1.2-2.7,1.2-4.5v-10c0-4.3-.4-7.6-1.2-10.1-.8-2.4-1.9-3.6-3.3-3.6s-2.6,1.2-3.5,3.7-1.4,6-1.4,10.6v9.4c0,1.8.4,3.3,1.2,4.5s1.7,2.1,2.6,2.6c.3.2.5.6.5,1s-.1.6-.3.8c-.2.2-.5.3-.8.3h-19.1c-.3,0-.5,0-.8-.3-.2-.2-.3-.5-.3-.8s.2-.7.6-1c.9-.6,1.7-1.4,2.5-2.6s1.2-2.7,1.2-4.5v-10c0-2.9-.2-5.3-.6-7.4-.4-2.1-.9-3.6-1.6-4.7-.7-1-1.5-1.6-2.4-1.6-1.4,0-2.5,1.2-3.4,3.7s-1.4,6-1.4,10.6h0v9.4c0,1.8.4,3.3,1.2,4.5s1.7,2.1,2.5,2.6c.4.2.6.6.6,1s-.1.5-.3.8c-.2.2-.5.3-.8.3h-19.1c-.3,0-.6,0-.8-.3s-.3-.5-.3-.8.2-.7.6-1c.9-.6,1.7-1.4,2.5-2.6s1.2-2.7,1.2-4.5v-17.5c0-.8-.5-1.6-1.4-2.3s-1.4-1.3-1.4-1.9.1-.7.4-.9.6-.3.8-.3c1.8,0,3.5-.3,5.2-1,1.6-.7,3-1.4,4-2.2,1-.8,2-1.5,3.1-2.2s2-1,2.7-1,1.4.4,1.4,1.1,0,.5-.2.7c-.1.2-.3.4-.6.8-.3.3-.5.6-.6.7,2.4-2.1,5.8-3.2,10.3-3.2s4.7.5,6.2,1.5,2.6,2.4,3.3,4.4c2.4-3.9,6.5-5.8,12.5-5.8s2.1,0,3,.2,1.7.4,2.4.7c.7.3,1.3.8,1.8,1.3s1,1.1,1.4,1.7.7,1.3,1,2.1.5,1.7.7,2.5.3,1.8.3,2.9.1,2.2.2,3.2v14.6c0,1.2.2,2.4.7,3.5s1,1.9,1.5,2.4,1,.9,1.5,1.2h.5Z"/>
      <path d="M283.1,98.1c.8-.9,1.7-1,2.7-.2s1.3,1.8.9,3.1c-1.3,4.5-3.6,8-6.9,10.5-3.2,2.5-6.8,3.8-10.6,3.8s-9.3-1.9-12.8-5.8-5.3-8.6-5.3-14.1,1.8-10.2,5.3-14.1,7.8-5.8,12.8-5.8,5.8.5,8,1.4,4,2.4,5.3,4.4,1.9,4.3,1.9,7.1-.2,1.8-.5,2.9c-.3,1-.9,2.2-1.7,3.5-.9,1.3-1.9,2.5-3.2,3.5-1.3,1-3,1.8-5.2,2.4s-4.7.8-7.6.7c1.5,1.7,3.4,2.5,5.6,2.5s2.4-.2,3.7-.6c1.3-.4,2.6-1.1,3.8-1.9,1.3-.9,2.5-1.9,3.6-3.1l.2-.2ZM264,93.7c0,1.8.2,3.4.7,4.7,1.9-1,3.5-2.3,4.8-3.8s2.2-3.1,2.8-4.9c.6-1.7.9-3.5.9-5.5s-.3-2.6-1-3.8-1.6-1.9-2.8-1.9-2.9,1.4-3.8,4.2c-.9,2.8-1.4,6.5-1.4,11h-.2Z"/>
      <path d="M320,98.1c.8-.9,1.7-1,2.7-.2s1.3,1.8.9,3.1c-1.3,4.5-3.6,8-6.9,10.5-3.2,2.5-6.8,3.8-10.6,3.8s-9.3-1.9-12.8-5.8-5.3-8.6-5.3-14.1,1.8-10.2,5.3-14.1,7.8-5.8,12.8-5.8,5.8.5,8,1.4,4,2.4,5.3,4.4,1.9,4.3,1.9,7.1-.2,1.8-.5,2.9c-.3,1-.9,2.2-1.7,3.5-.9,1.3-1.9,2.5-3.2,3.5-1.3,1-3,1.8-5.2,2.4s-4.7.8-7.6.7c1.5,1.7,3.4,2.5,5.6,2.5s2.4-.2,3.7-.6c1.3-.4,2.6-1.1,3.8-1.9,1.3-.9,2.5-1.9,3.6-3.1l.2-.2ZM301,93.7c0,1.8.2,3.4.7,4.7,1.9-1,3.5-2.3,4.8-3.8s2.2-3.1,2.8-4.9c.6-1.7.9-3.5.9-5.5s-.3-2.6-1-3.8-1.6-1.9-2.8-1.9-2.9,1.4-3.8,4.2c-.9,2.8-1.4,6.5-1.4,11h-.2Z"/>
      <path d="M339.6,108.1c0,1.2.2,2,.6,2.5s.9.7,1.4.7.9,0,1.4,0,.6.5.6,1-.3.9-.8,1.3-1.4.8-2.7,1.1c-1.3.3-2.8.5-4.6.5s-3.3-.3-4.5-.8-2.1-1.3-2.7-2.3-.9-2-1.1-3-.3-2.1-.3-3.3v-26.3h-2.1c-.2,0-.4,0-.6-.3-.2-.2-.3-.4-.3-.7v-.8c0-.6.2-.8.7-.8,1.6,0,3.2-.4,4.8-1.3,1.6-.9,3-1.9,4.2-3.1,1.1-1.2,2.1-2.4,2.8-3.5.7-1.2,1.1-2.1,1.1-2.9s.2-.9.6-1.1.8-.2,1.1,0c.4.2.6.5.6,1v10.8h2.6c.2,0,.4,0,.6.3.2.2.3.4.3.7v.7c0,.3,0,.5-.3.7-.2.2-.4.3-.6.3h-2.8v28.7-.2Z"/>
      <path d="M370.1,75.5c3.7,0,6.8,1.9,9.4,5.8s3.9,8.5,3.9,14-1.3,10.2-3.9,14.1-5.7,5.8-9.4,5.8-6.8-1.5-9.2-4.5c0,.9-.5,1.6-1.2,2.3s-1.5.9-2.4.9h-12.2c-.3,0-.6,0-.8-.3s-.3-.5-.3-.8.2-.7.5-1c.9-.6,1.8-1.4,2.6-2.6.8-1.2,1.2-2.7,1.2-4.5v-31c0-.8-.5-1.6-1.4-2.3s-1.4-1.3-1.4-1.9.1-.7.4-.9.6-.3.8-.3c1.8,0,3.5-.3,5.2-1,1.6-.6,3-1.4,4-2.1,1-.8,2-1.5,3.1-2.2s2-1,2.8-1,1.4.4,1.4,1.1-.2.8-.6,1.2-.7.9-1.1,1.6-.6,1.4-.6,2.3v11.9c2.3-3,5.3-4.4,9.1-4.4v-.2ZM362.4,105.5c.9,2.8,2.1,4.2,3.4,4.2s2.4-1.4,3.4-4.2c.9-2.8,1.4-6.2,1.4-10.2s-.2-5-.7-7.2c-.4-2.2-1-3.9-1.8-5.2-.7-1.3-1.5-1.9-2.4-1.9s-1.7.6-2.4,1.9c-.7,1.3-1.3,3-1.8,5.2-.4,2.2-.7,4.6-.7,7.2,0,4,.5,7.4,1.4,10.2h.2Z"/>
      <path d="M424.9,112.5c.3.2.5.6.5,1s-.1.6-.3.8c-.2.2-.5.3-.8.3h-12.1c-1.1,0-2-.4-2.7-1.3s-1-2.1-1-3.7v-.4c-3.8,3.6-8.1,5.4-12.8,5.4s-5.5-1-7.6-2.9c-2-1.9-3.1-4.6-3.1-7.9s.6-4.1,1.7-5.8c1.2-1.7,2.6-3.1,4.3-4.1,1.7-1,3.6-2,5.7-2.9,2-.9,3.9-1.7,5.7-2.4,1.7-.6,3.2-1.4,4.3-2.4,1.2-.9,1.7-1.9,1.7-3.1s-.2-1.1-.5-1.7-.9-1-1.6-1.4-1.5-.6-2.4-.6-2,.3-2.9.9-1.7,1.3-2.4,2.1-1.4,1.7-2,2.5c-.7.8-1.4,1.5-2.2,2.1-.8.6-1.7.9-2.5.9s-1.7-.4-2.5-1.1c-.9-.7-1.3-1.7-1.3-2.8,0-2.2,1.4-4,4.1-5.6s6.6-2.4,11.6-2.4.9,0,1.9,0c.9,0,2.3.4,4.3.9s3.7,1.1,5.3,2c1.6.8,3,2.1,4.2,3.8,1.2,1.7,1.8,3.7,1.8,6v16.4c0,1.8.4,3.3,1.2,4.5.8,1.2,1.7,2.1,2.6,2.6l-.2.2ZM408.4,104.2v-14.6c-.5.4-1.2,1-2.1,1.6-.9.7-1.6,1.2-2.2,1.7s-1.3,1-2,1.7-1.3,1.3-1.8,1.9-.8,1.3-1.1,2.1c-.3.8-.5,1.6-.5,2.5,0,2.1.5,3.6,1.5,4.5s2.1,1.4,3.3,1.4c1.8,0,3.4-.9,5-2.8h0Z"/>
      <path d="M446.2,111.8c.4.2.6.6.6,1s-.1.5-.3.8-.5.3-.8.3h-19.1c-.3,0-.6,0-.8-.3s-.3-.5-.3-.8.2-.7.6-1c.9-.6,1.7-1.4,2.5-2.6s1.2-2.7,1.2-4.5v-31c0-.8-.5-1.6-1.4-2.3s-1.4-1.3-1.4-1.9.1-.7.4-.9.6-.3.8-.3c1.8,0,3.5-.3,5.2-1,1.6-.6,3-1.4,4-2.1,1-.8,2-1.5,3.1-2.2s2-1,2.7-1,1.4.4,1.4,1.1-.2.8-.6,1.2-.7.9-1.1,1.6-.6,1.4-.6,2.3v36.6c0,1.8.4,3.3,1.2,4.5.8,1.2,1.7,2.1,2.5,2.6h.2Z"/>
      <path d="M467.6,111.8c.4.2.6.6.6,1s-.1.5-.3.8-.5.3-.8.3h-19.1c-.3,0-.6,0-.8-.3s-.3-.5-.3-.8.2-.7.6-1c.9-.6,1.7-1.4,2.5-2.6s1.2-2.7,1.2-4.5v-31c0-.8-.5-1.6-1.4-2.3s-1.4-1.3-1.4-1.9.1-.7.4-.9.6-.3.8-.3c1.8,0,3.5-.3,5.2-1,1.6-.6,3-1.4,4-2.1,1-.8,2-1.5,3.1-2.2s2-1,2.7-1,1.4.4,1.4,1.1-.2.8-.6,1.2-.7.9-1.1,1.6-.6,1.4-.6,2.3v36.6c0,1.8.4,3.3,1.2,4.5.8,1.2,1.7,2.1,2.5,2.6h.2Z"/>
    </g>
    <g>
      <polygon class="st0" points="150 109.5 158.2 118.5 146.3 116.6 150 109.5"/>
      <path class="st5" d="M158.1,120.1c1.7-2,3.9-4.8,6.2-9.6s2.8-14.4,3-24-5.7-15.4-10.1-20.1c-4.4-4.6-18-9.9-24.6-10.5-6.6-.6-21.7.4-31.2,2.8-9.5,2.3-16,6.9-21.6,16.2s-4,18.5-4,23,5.7,15.9,5.7,15.9l.4.9c0,1.2-.6,2.7-1.6,4.5-3.7,5.9-7.6,8.1-7.6,8.1,0,0,5.1,1.9,10.9,0,1.3-.5,2.5-1.1,3.5-1.7,1.5,1.6,4.3,3.9,9.3,6.5,9,4.7,26.2.8,34.6.6,5.4-.1,12.6-2.2,18.6-5.6,1.5.5,3.5,1,5.7,1,6.1,0,10.3-2.3,10.3-2.3,0,0-3.8-.7-8.6-4.2.4-.4.8-.9,1.2-1.4h0Z"/>
      <path class="st3" d="M158.8,118.1c-.5-1.3-.7-2.3-.9-3.2.6-.9,1.2-1.9,1.8-2.9,2.5-4.8,3.2-11.2,3.2-15.2s3.1-12.3-1.9-20.7-12.5-13.5-20.9-16c-11.1-3.3-22.2-1.5-28.1-1s-18.1,5.2-22.1,9.4c-4,4.2-9.3,9.4-9.1,18,.2,8.6-.3,16.7,1.8,21,2.1,4.3,3.8,9.2,4.7,11.4,3.3,7.4,16.3,12.3,20.4,12.3,7.5,0,27.4.3,35.5-4,4.6-2.4,7.2-4.1,8.5-5.2,1,.9,2.6,2,4.5,2.6,4.7,1.6,9.3,1.1,9.3,1.1,0,0-5.3-4-6.6-7.6h-.1Z"/>
      <path class="st4" d="M156.9,80.6c-1.8-3.7-4.5-6.7-5.4-8.7-2.9-6.5-14.3-10.7-17.8-10.7-6.6,0-23.9-.3-31,3.5s-5.8,2.6-9.3,5.1c-3.4,2.5-6.1,7-6.1,7,0,0-3.4,7.1-3.4,10.7s-1.2,14.6,3.2,21.9c.3.4.5.8.8,1.3,0,.9,0,3.4-.3,5.9-.5,3.2-4.9,5.8-4.9,5.8,0,0,4.3,1,8.4,0,1.7-.5,3.1-1.4,3.9-2.1,2.9,3,6.1,5.5,9.7,6.5,9.7,2.9,19.4,1.3,24.6.9,5.2-.4,17.1-6.9,20.6-10.5s9.4-10.7,9.2-18.2-.2-14.5-2-18.2h-.2Z"/>
      <path class="st0" d="M150,115c-.5-.5-.8-.9-1.1-1.3l2.5-3.4s3-6.4,3-9.6,1.1-13.1-2.9-19.7-9.2-13.6-15.8-15.6c-8.8-2.6-17.5-1.2-22.2-.8s-15.5,6.2-18.6,9.5-8.5,9.6-8.3,16.4.2,13.1,1.8,16.4c1.6,3.4,4.1,6.1,4.9,7.8,2.6,5.9,12.9,9.7,16.1,9.7,5.9,0,21.6.2,28-3.1,2-1,3.6-1.9,5-2.6,1.3.6,3.3,1.3,5.4,1.6,4,.6,7.8-.8,7.8-.8,0,0-3.7-2.1-5.8-4.4h.2Z"/>
      <path class="st2" d="M147.2,109.6c0-1.1,0-2.1.1-2.8.9-1.7,1.5-3.1,1.9-3.9,1.4-2.9,1.1-8.5,1.3-14.5s-3.6-9.6-6.3-12.5-11.2-6.2-15.3-6.5c-4.1-.3-14.6.4-19.3,1.9-2.3.8-11.2,4.1-14.7,9.9-2.1,3.6-2.1,12.5-2.1,15.3s2.6,9.8,2.6,9.8l4.2,5.1s2.1,2.2,7.7,5.2c5.6,2.9,17.8,3.3,23,2.4,5.4-1,9.3-3.3,12.1-5.9.3.3.7.6,1,.9,3.2,2.4,6.9,1.5,6.9,1.5,0,0-3.1-2.7-3.2-5.8h.1Z"/>
      <path class="st5" d="M146,96.2c0-2.4,0-10-1.8-13.1-3-5-14.2-10.1-29.2-10.1s-10.8,3.1-13.1,5.6c-6.6,7-5.6,20.7-4.3,23.2.3.6.9,1.6,1.9,2.9,0,.5-.2,1-.3,1.6-.7,3.1-4.7,5.3-4.7,5.3,0,0,3.8,1.5,7.2-.4.8-.5,1.6-1.1,2.2-1.6,2.9,2.8,6.5,5.4,10.1,6,4.4.7,14.9.5,19.8-2.1,4.8-2.5,4.6-2.6,4.6-2.6l5.6-6.2s2.3-6,2.3-8.4h-.3Z"/>
      <path class="st1" d="M138.6,105.1c-.2-.5-.4-.9-.5-1.3,1.5-1.7,2.5-3.2,2.9-4,1-2,1.8-12.6-3.4-18.1-1.8-1.9-9.7-4.4-10.3-4.4-11.7,0-20.5,4-22.8,7.9-1.4,2.4-1.4,8.4-1.4,10.3s1.8,6.6,1.8,6.6l4.8,5s8.5,5.5,18.6,3.5c1.7-.3,3.4-1.2,4.9-2.3.9.7,2.3,1.7,4,2.3,3.7,1.2,7.3-1.1,7.3-1.1,0,0-4.5-1.4-5.8-4.4h0Z"/>
      <path class="st7" d="M136,86.9c-1.9-3.2-9.2-6.6-19-6.6s-7,2-8.5,3.6c-4.3,4.5-3.6,13.4-2.8,15.1h0c0,.8,0,1.9-.4,3.1-.7,2.5-4,4.3-4,4.3,0,0,3.1,1.3,5.9,0s2.1-1.5,2.7-2.2c1.9,1.7,4.1,3.3,6.4,3.8,8.4,1.7,14.1-2.2,14.1-2.2l5.7-5.9s1.1-2.9,1.1-4.4,0-6.5-1.2-8.5Z"/>
      <path class="st6" d="M130.2,88c-.9-1-4.9-2.2-5.2-2.2-6,0-10.4,2.1-11.6,4-.7,1.2-.7,4.3-.7,5.2s0,0,0,0h0c0,0,0,1.1-.4,3.2-.6,2.1-3.4,3.6-3.4,3.6,0,0,2.6,1.1,5,0,.8-.4,1.5-1,2-1.6l1.1,1.2s3.5,2.4,8.7,1.3c3-.6,6-4.5,6.5-5.5s.9-6.5-1.7-9.2h-.2Z"/>
    </g>
  </g>
  <g>
    <polygon class="st0" points="160.4 -155.3 172.6 -142 155 -144.8 160.4 -155.3"/>
    <path class="st5" d="M172.4-139.6c2.5-3,5.8-7.1,9.2-14.2s4.1-21.3,4.4-35.5-8.4-22.8-15-29.8c-6.5-6.8-26.7-14.7-36.4-15.6-9.8-.9-32.1.6-46.2,4.1-14.1,3.4-23.7,10.2-32,24s-5.9,27.4-5.9,34.1,8.4,23.6,8.4,23.6l.6,1.3c-.1,1.8-.9,4-2.4,6.7-5.5,8.7-11.3,12-11.3,12,0,0,7.6,2.8,16.1-.1,1.9-.7,3.7-1.6,5.2-2.5,2.2,2.4,6.4,5.8,13.8,9.6,13.3,7,38.8,1.2,51.3.9,8-.1,18.7-3.3,27.6-8.3,2.2.7,5.2,1.5,8.4,1.5,9,0,15.3-3.4,15.3-3.4,0,0-5.6-1-12.7-6.2.6-.6,1.2-1.3,1.8-2.1h-.1Z"/>
    <path class="st3" d="M173.5-142.6c-.7-1.9-1-3.4-1.3-4.7.9-1.3,1.8-2.8,2.7-4.3,3.7-7.1,4.7-16.6,4.7-22.5s4.6-18.2-2.8-30.7-18.5-20-31-23.7c-16.4-4.9-32.9-2.2-41.6-1.5s-26.8,7.7-32.7,13.9c-5.9,6.2-13.8,13.9-13.5,26.7.3,12.7-.4,24.7,2.7,31.1,3.1,6.4,5.6,13.6,7,16.9,4.9,11,24.1,18.2,30.2,18.2,11.1,0,40.6.4,52.6-5.9,6.8-3.6,10.7-6.1,12.6-7.7,1.5,1.3,3.9,3,6.7,3.9,7,2.4,13.8,1.6,13.8,1.6,0,0-7.9-5.9-9.8-11.3h-.1Z"/>
    <path class="st4" d="M170.7-198.1c-2.7-5.5-6.7-9.9-8-12.9-4.3-9.6-21.2-15.8-26.4-15.8-9.8,0-35.4-.4-45.9,5.2s-8.6,3.9-13.8,7.6c-5,3.7-9,10.4-9,10.4,0,0-5,10.5-5,15.8s-1.8,21.6,4.7,32.4c.4.6.7,1.2,1.2,1.9,0,1.3,0,5-.4,8.7-.7,4.7-7.3,8.6-7.3,8.6,0,0,6.4,1.5,12.4-.1,2.5-.7,4.6-2.1,5.8-3.1,4.3,4.4,9,8.1,14.4,9.6,14.4,4.3,28.7,1.9,36.4,1.3,7.7-.6,25.3-10.2,30.5-15.6s13.9-15.8,13.6-27c-.3-11.1-.3-21.5-3-27h-.3Z"/>
    <path class="st0" d="M160.4-147.2c-.7-.7-1.2-1.3-1.6-1.9l3.7-5s4.4-9.5,4.4-14.2,1.6-19.4-4.3-29.2-13.6-20.1-23.4-23.1c-13-3.9-25.9-1.8-32.9-1.2s-23,9.2-27.6,14.1-12.6,14.2-12.3,24.3.3,19.4,2.7,24.3c2.4,5,6.1,9,7.3,11.6,3.9,8.7,19.1,14.4,23.8,14.4,8.7,0,32,.3,41.5-4.6,3-1.5,5.3-2.8,7.4-3.9,1.9.9,4.9,1.9,8,2.4,5.9.9,11.6-1.2,11.6-1.2,0,0-5.5-3.1-8.6-6.5h.3Z"/>
    <path class="st2" d="M156.3-155.2c0-1.6,0-3.1.1-4.1,1.3-2.5,2.2-4.6,2.8-5.8,2.1-4.3,1.6-12.6,1.9-21.5s-5.3-14.2-9.3-18.5-16.6-9.2-22.7-9.6c-6.1-.4-21.6.6-28.6,2.8-3.4,1.2-16.6,6.1-21.8,14.7-3.1,5.3-3.1,18.5-3.1,22.7s3.9,14.5,3.9,14.5l6.2,7.6s3.1,3.3,11.4,7.7c8.3,4.3,26.4,4.9,34.1,3.6,8-1.5,13.8-4.9,17.9-8.7.4.4,1,.9,1.5,1.3,4.7,3.6,10.2,2.2,10.2,2.2,0,0-4.6-4-4.7-8.6h.1Z"/>
    <path class="st5" d="M154.5-175c0-3.6,0-14.8-2.7-19.4-4.4-7.4-21-15-43.3-15s-16,4.6-19.4,8.3c-9.8,10.4-8.3,30.7-6.4,34.4.4.9,1.3,2.4,2.8,4.3,0,.7-.3,1.5-.4,2.4-1,4.6-7,7.9-7,7.9,0,0,5.6,2.2,10.7-.6,1.2-.7,2.4-1.6,3.3-2.4,4.3,4.1,9.6,8,15,8.9,6.5,1,22.1.7,29.3-3.1,7.1-3.7,6.8-3.9,6.8-3.9l8.3-9.2s3.4-8.9,3.4-12.4h-.4Z"/>
    <path class="st1" d="M143.5-161.8c-.3-.7-.6-1.3-.7-1.9,2.2-2.5,3.7-4.7,4.3-5.9,1.5-3,2.7-18.7-5-26.8-2.7-2.8-14.4-6.5-15.3-6.5-17.3,0-30.4,5.9-33.8,11.7-2.1,3.6-2.1,12.4-2.1,15.3s2.7,9.8,2.7,9.8l7.1,7.4s12.6,8.1,27.6,5.2c2.5-.4,5-1.8,7.3-3.4,1.3,1,3.4,2.5,5.9,3.4,5.5,1.8,10.8-1.6,10.8-1.6,0,0-6.7-2.1-8.6-6.5h-.1Z"/>
    <path class="st7" d="M139.7-188.8c-2.8-4.7-13.6-9.8-28.1-9.8s-10.4,3-12.6,5.3c-6.4,6.7-5.3,19.8-4.1,22.4h0c0,1.2,0,2.8-.6,4.6-1,3.7-5.9,6.4-5.9,6.4,0,0,4.6,1.9,8.7-.1s3.1-2.2,4-3.3c2.8,2.5,6.1,4.9,9.5,5.6,12.4,2.5,20.9-3.3,20.9-3.3l8.4-8.7s1.6-4.3,1.6-6.5,0-9.6-1.8-12.6Z"/>
    <path class="st6" d="M131.1-187.2c-1.3-1.5-7.3-3.3-7.7-3.3-8.9,0-15.4,3.1-17.2,5.9-1,1.8-1,6.4-1,7.7s0,0,0,0h-.1c0-.1.1,1.6-.6,4.7-.9,3.1-5,5.3-5,5.3,0,0,3.9,1.6,7.4,0,1.2-.6,2.2-1.5,3-2.4l1.6,1.8s5.2,3.6,12.9,1.9c4.4-.9,8.9-6.7,9.6-8.1s1.3-9.6-2.5-13.6h-.3Z"/>
  </g>
</svg>