<?xml version="1.0" encoding="UTF-8"?>
<svg id="Layer_1" xmlns="http://www.w3.org/2000/svg" xmlns:xlink="http://www.w3.org/1999/xlink" version="1.1" viewBox="0 0 81 72.7">
  <!-- Generator: Adobe Illustrator 29.1.0, SVG Export Plug-In . SVG Version: 2.1.0 Build 142)  -->
  <defs>
    <style>
      .st0 {
        fill: #dda20e;
      }

      .st1 {
        fill: url(#linear-gradient);
      }
    </style>
    <linearGradient id="linear-gradient" x1="-52.6" y1="-.5" x2="-6.9" y2="-.5" gradientTransform="translate(67.2 16.7) rotate(-31.7)" gradientUnits="userSpaceOnUse">
      <stop offset="0" stop-color="#ffca28"/>
      <stop offset="1" stop-color="#ffb300"/>
    </linearGradient>
  </defs>
  <path class="st1" d="M15.6,28.5c-1.2.9-1.5,2.6-.7,3.8,3.5,5.4,12.5,19.2,15.2,23.6,3.4,5.5,9.2,11.5,22,3.7,12.7-7.8,10.4-16.2,9.3-21.6s-1.4-14.2-.7-16.9-2.2-4.5-4.9-2.2-1.8,8.3-2.4,9.9-2,2.6-4-.7l-11.1-18c-.9-1.5-2.9-1.9-4.4-1h0c-1.5.9-1.9,2.9-1,4.4l9.4,15.2c.3.5.2,1.2-.4,1.6h0c-.5.3-1.2.2-1.6-.4l-12.6-19.9c-.9-1.5-2.9-1.9-4.4-1h0c-1.5.9-2,2.9-1,4.4l12.9,20.8c.3.5.2,1.2-.3,1.5h0c-.5.3-1.2.2-1.5-.3l-10.4-16.9c-.9-1.5-2.9-1.9-4.4-1h0c-1.5.9-1.9,2.9-1,4.4l10.4,16.8c.3.4.1.9-.3,1.2h0c-.4.2-.9.1-1.2-.3l-6.9-10.2c-.9-1.3-2.7-1.6-4-.7h0Z"/>
  <path class="st0" d="M41.3,64c-5.9,0-9.3-4.1-11.6-7.8-2.7-4.3-11.5-17.9-15.2-23.6-1-1.5-.6-3.5.8-4.6h0c.8-.6,1.7-.8,2.6-.6.9.2,1.7.7,2.3,1.5l6.9,10.2c0,.1.2.2.4,0,.1,0,.2-.2,0-.4l-10.4-16.8c-.5-.9-.7-1.9-.5-2.8s.8-1.8,1.7-2.3c.9-.5,1.9-.7,2.8-.5,1,.2,1.8.8,2.3,1.7l10.4,16.9c.1.2.4.3.6.2.2-.1.3-.4.2-.6l-12.9-20.8c-1.1-1.8-.5-4.1,1.2-5.2,1.8-1.1,4.1-.5,5.2,1.2l12.6,19.9c.2.3.5.3.7.2.3-.2.3-.5.2-.7l-9.4-15.2c-1.1-1.8-.5-4.1,1.2-5.2,1.8-1.1,4.1-.5,5.2,1.2l11.1,18c1.1,1.8,1.8,1.9,2,1.9.3,0,.7-.4.9-1.1.2-.4.2-1.4.2-2.3.1-2.6.3-6.1,2.3-7.8,1.8-1.5,3.5-1.4,4.5-.8,1.2.7,1.7,2.1,1.3,3.6-.7,2.8-.4,11.5.7,16.7v.4c1.3,5.5,3.2,13.9-9.5,21.8-4.5,2.8-8.2,3.9-11.2,3.9ZM16,29c-.9.7-1.2,2-.5,3,3.7,5.7,12.6,19.3,15.2,23.6,3.4,5.6,9,11,21.1,3.5,12-7.4,10.2-15.3,9.1-20.5v-.5c-1.3-5.3-1.5-14.3-.8-17.2.2-1,0-1.8-.8-2.3-.7-.4-1.8-.4-3.1.7-1.6,1.4-1.8,4.6-1.9,7,0,1.2-.1,2.1-.3,2.7-.4,1.1-1.1,1.8-1.9,1.9-1,.1-2.1-.7-3.2-2.5l-11.1-18c-.7-1.2-2.3-1.6-3.5-.8-1.2.7-1.6,2.3-.8,3.5l9.4,15.2c.5.8.2,1.9-.6,2.4-.8.5-1.9.3-2.4-.6l-12.6-19.9c-.8-1.2-2.3-1.6-3.5-.8-1.2.7-1.6,2.3-.8,3.5l12.9,20.8c.5.8.2,1.8-.5,2.3-.8.5-1.8.2-2.3-.5l-10.4-16.9c-.4-.6-.9-1-1.6-1.1-.7-.2-1.4,0-1.9.3-.6.4-1,.9-1.1,1.6-.2.7,0,1.4.3,1.9l10.4,16.8c.4.7.2,1.6-.5,2-.7.4-1.5.2-2-.4l-6.9-10.2c-.3-.5-.9-.8-1.5-.9-.6-.1-1.2,0-1.7.4h0Z"/>
  <path class="st0" d="M53.7,29.7s-2.2,3.6-3,8.3.6,9.1.6,9.1c0,0-3-5.1-2.3-10s1.8-6.9,1.8-6.9l2.9-.5Z"/>
</svg>