<svg width="19" height="20" viewBox="0 0 19 20" fill="none" xmlns="http://www.w3.org/2000/svg">
<path d="M17.7701 13.21L15.9701 11.4V6.94002C15.994 5.28384 15.4179 3.67493 14.3482 2.41035C13.2785 1.14578 11.7873 0.310951 10.1501 0.0600163C9.19989 -0.0651165 8.23394 0.0138312 7.31668 0.291592C6.39942 0.569352 5.55194 1.03954 4.8308 1.67078C4.10965 2.30202 3.53142 3.07979 3.13468 3.95221C2.73794 4.82463 2.53182 5.77163 2.53007 6.73002V11.4L0.730073 13.21C0.503979 13.4399 0.350657 13.7313 0.289273 14.0478C0.22789 14.3643 0.261169 14.6919 0.384951 14.9897C0.508732 15.2874 0.717524 15.542 0.985224 15.7217C1.25292 15.9014 1.56766 15.9982 1.89007 16H5.25007V16.34C5.29678 17.3552 5.74403 18.3105 6.4938 18.9965C7.24357 19.6826 8.23473 20.0434 9.25007 20C10.2654 20.0434 11.2566 19.6826 12.0063 18.9965C12.7561 18.3105 13.2034 17.3552 13.2501 16.34V16H16.6101C16.9325 15.9982 17.2472 15.9014 17.5149 15.7217C17.7826 15.542 17.9914 15.2874 18.1152 14.9897C18.239 14.6919 18.2723 14.3643 18.2109 14.0478C18.1495 13.7313 17.9962 13.4399 17.7701 13.21ZM11.2501 16.34C11.1946 16.821 10.9557 17.2621 10.5831 17.5713C10.2106 17.8805 9.73306 18.0341 9.25007 18C8.76709 18.0341 8.28957 17.8805 7.917 17.5713C7.54443 17.2621 7.30553 16.821 7.25007 16.34V16H11.2501V16.34Z" fill="black"/>
</svg>
