<svg width="21" height="20" viewBox="0 0 21 20" fill="none" xmlns="http://www.w3.org/2000/svg">
<path d="M6.25 6H14.25M6.25 10H12.25M12.25 15H11.25L6.25 18V15H4.25C3.45435 15 2.69129 14.6839 2.12868 14.1213C1.56607 13.5587 1.25 12.7956 1.25 12V4C1.25 3.20435 1.56607 2.44129 2.12868 1.87868C2.69129 1.31607 3.45435 1 4.25 1H16.25C17.0456 1 17.8087 1.31607 18.3713 1.87868C18.9339 2.44129 19.25 3.20435 19.25 4V8.5M17.25 19V19.01M17.25 15.9998C17.6983 15.9983 18.1332 15.8466 18.485 15.5687C18.8368 15.2909 19.0852 14.903 19.1906 14.4673C19.2959 14.0315 19.2519 13.5731 19.0658 13.1652C18.8797 12.7574 18.5622 12.4238 18.164 12.2178C17.7662 12.014 17.3111 11.9508 16.8728 12.0385C16.4345 12.1262 16.0388 12.3596 15.75 12.7008" stroke="black" stroke-width="2" stroke-linecap="round" stroke-linejoin="round"/>
</svg>
